<svg width="59" height="50" fill="none" xmlns="http://www.w3.org/2000/svg"><path d="M20.27 21.622h-5.405c-.743 0-1.351.608-1.351 1.351v5.405c0 .744.608 1.352 1.35 1.352h5.406c.744 0 1.352-.608 1.352-1.352v-5.405c0-.743-.608-1.351-1.352-1.351Zm-1.351 5.405h-2.703v-2.703h2.703v2.703Zm37.838-4.054H51.35v-5.405c0-.744-.608-1.352-1.351-1.352h-5.405v-4.054c0-.743-.608-1.351-1.352-1.351H39.19V8.108h4.054c.743 0 1.352-.608 1.352-1.351V1.35C44.595.608 43.987 0 43.243 0h-5.405c-.743 0-1.352.608-1.352 1.351v4.054h-4.054c-.743 0-1.35.609-1.35 1.352v4.054h-4.055V6.757c0-.743-.608-1.352-1.351-1.352h-4.054V1.351C21.622.608 21.014 0 20.27 0h-5.405c-.743 0-1.351.608-1.351 1.351v5.406c0 .743.608 1.351 1.35 1.351h4.055v2.703h-4.054c-.743 0-1.351.608-1.351 1.351v4.054H8.108c-.743 0-1.351.608-1.351 1.352v5.405H1.35c-.743 0-1.351.608-1.351 1.351v18.92c0 .742.608 1.35 1.351 1.35h5.406c.743 0 1.351-.608 1.351-1.35v-8.109h4.054v8.108c0 .743.608 1.352 1.351 1.352h4.055v4.054c0 .743.608 1.351 1.35 1.351h5.406c.744 0 1.352-.608 1.352-1.351v-5.406c0-.743-.608-1.351-1.352-1.351H20.27v-2.703h17.568v2.703h-4.054c-.743 0-1.352.608-1.352 1.351v5.406c0 .743.608 1.351 1.352 1.351h5.405c.743 0 1.352-.608 1.352-1.351v-4.054h4.054c.743 0 1.35-.608 1.35-1.352v-8.108H50v8.108c0 .743.608 1.352 1.351 1.352h5.406c.743 0 1.351-.608 1.351-1.352V24.324c0-.743-.608-1.351-1.351-1.351ZM39.189 2.703h2.703v2.702h-2.703V2.703Zm-22.973 0h2.703v2.702h-2.703V2.703Zm6.757 44.594H20.27v-2.702h2.703v2.702Zm14.865 0h-2.703v-2.702h2.703v2.702Zm14.865-5.405v-8.108c0-.743-.608-1.352-1.352-1.352h-6.756c-.744 0-1.352.608-1.352 1.352v8.108H40.54v-4.054c0-.743-.608-1.352-1.35-1.352H18.918c-.743 0-1.351.609-1.351 1.352v4.054h-2.703v-8.108c0-.743-.608-1.352-1.351-1.352H6.757c-.743 0-1.352.608-1.352 1.352v8.108H2.703V25.676h5.405c.743 0 1.351-.608 1.351-1.352V18.92h5.406c.743 0 1.351-.608 1.351-1.351v-4.055h4.054c.744 0 1.352-.608 1.352-1.35V8.107h2.702v4.054c0 .743.608 1.351 1.352 1.351h6.756c.744 0 1.352-.608 1.352-1.35V8.107h2.703v4.054c0 .743.608 1.351 1.35 1.351h4.055v4.055c0 .743.608 1.35 1.351 1.35h5.406v5.406c0 .744.608 1.352 1.351 1.352h5.405v16.216h-2.702Zm-9.46-20.27h-5.405c-.743 0-1.352.608-1.352 1.351v5.405c0 .744.609 1.352 1.352 1.352h5.405c.743 0 1.352-.608 1.352-1.352v-5.405c0-.743-.608-1.351-1.352-1.351Zm-1.351 5.405h-2.703v-2.703h2.703v2.703Z" fill="#fff"/></svg>